<?xml version="1.0" encoding="utf-8"?>
<!-- Generator: Adobe Illustrator 26.0.1, SVG Export Plug-In . SVG Version: 6.00 Build 0)  -->
<svg version="1.1" id="Layer_1" xmlns="http://www.w3.org/2000/svg" xmlns:xlink="http://www.w3.org/1999/xlink" x="0px" y="0px"
	 viewBox="0 0 266 78" style="enable-background:new 0 0 266 78;" xml:space="preserve">
<style type="text/css">
	.st0{fill:#53372B;}
	.st1{fill:#7C5345;}
	.st2{fill:#C9BA99;}
</style>
<g>
	<path class="st0" d="M71.2,44.7c0-1.8,0.2-3.6,0.7-5.5s1.1-3.5,1.9-5.1c0.8-1.7,1.7-3.1,2.8-4.4s2.3-2.5,3.6-3.5
		c1.3-1,2.7-1.7,4.2-2.2c1.5-0.6,3-0.8,4.6-0.8c1.8,0,3.2,0.4,4.2,1.2c1,0.7,1.6,1.8,1.6,3.2c0,0.5-0.1,1.1-0.2,1.7
		c-0.2,0.6-0.3,1.1-0.7,1.7c-0.2,0.5-0.6,1.1-1,1.6c-0.3,0.5-0.7,0.9-1.2,1.3c-0.7-0.1-1.3-0.4-1.8-0.9s-0.8-1.2-1-1.8
		c0.9-0.7,1.7-1.6,2.2-2.4c0.6-0.8,0.8-1.7,0.8-2.3c0-1.2-0.7-1.7-2.2-1.7c-0.6,0-1.2,0.2-1.9,0.4c-0.7,0.2-1.3,0.6-2,1
		s-1.3,1-2,1.7c-0.6,0.7-1.2,1.3-1.7,2.1c-3.6,5.3-5.6,10.7-5.6,16.2c0,2,0.3,3.6,0.9,4.7c0.6,1.2,1.4,1.9,2.4,2.1
		c1.2-0.2,2.6-1,4.3-2.2c1.7-1.2,3.6-2.7,5.7-4.6c0.2,0.2,0.4,0.6,0.5,0.8c-0.7,1-1.6,2-2.4,2.9s-1.7,1.7-2.5,2.6
		c-0.8,0.7-1.6,1.4-2.4,2c-0.7,0.6-1.5,1-2.2,1.3c-3.3-0.1-5.8-1-7.5-2.8C71.8,51,71.2,48.3,71.2,44.7z M97.9,53.9
		c-1.5-0.2-2.7-0.8-3.6-2S93,49.2,93,47.4c0-1.1,0.2-2.2,0.5-3.3c0.3-1.2,0.7-2.2,1.3-3.3s1.2-2.1,2.1-3.1c0.8-1,1.7-1.7,2.6-2.5
		c1.5-1.1,2.8-1.7,4.1-1.7c0.8,0.4,1.7,1.4,2.5,2.8c0.2,0,0.2,0,0.3,0s0.2,0,0.3,0c1.4,0,2.1,1.2,2.1,3.7c0,1.7-0.2,3.2-0.8,4.8
		c-0.5,1.5-1.3,2.8-2.2,4.1c-1,1.2-2.1,2.2-3.5,3.1C100.9,53,99.4,53.6,97.9,53.9z M99.9,41.4c-0.4,0.6-0.9,1.2-1.2,2
		c-0.4,0.7-0.7,1.4-1,2.2c-0.3,0.7-0.5,1.4-0.7,2.1c-0.2,0.7-0.2,1.2-0.2,1.8c0,0.7,0.1,1.2,0.3,1.8c0.2,0.6,0.4,0.9,0.7,1
		c1.2-0.2,2.3-0.7,3.2-1.5c1-0.7,1.9-1.7,2.6-2.7c0.7-1.1,1.3-2.3,1.7-3.7c0.4-1.4,0.7-2.8,0.7-4.4c0-0.7,0-1.2-0.1-1.7
		c-0.1-0.4-0.2-0.7-0.4-1c-1.2,0.3-2.2,0.9-3.1,1.7C101.3,39.7,100.5,40.5,99.9,41.4z M133.7,40.3c-0.4,0-0.9,0.3-1.6,0.8
		c-0.6,0.5-1.2,1.2-2,2c-0.7,0.8-1.4,1.7-2.2,2.7c-0.7,1-1.5,2-2.2,3s-1.3,1.8-2,2.7c-0.6,0.8-1.2,1.5-1.6,2c-0.6-0.2-1.1-0.6-1.5-1
		c-0.4-0.5-0.7-1.1-0.9-1.7c0.2-0.8,0.3-1.7,0.6-2.6c0.2-0.9,0.6-1.8,0.9-2.8c0.4-1,0.9-2,1.4-3c0.6-1.1,1.3-2.2,2.1-3.3
		c-0.4,0-0.9,0.3-1.7,0.9c-0.7,0.5-1.4,1.2-2.2,2.1c-0.8,0.8-1.7,1.8-2.5,2.9s-1.7,2.1-2.4,3.1c-1,1.4-1.8,2.6-2.5,3.6
		s-1.1,1.7-1.4,1.8c-0.7-0.5-1.2-1.1-1.4-1.7c-0.2-0.6-0.5-1.2-0.6-2c0-0.7,0.1-1.4,0.2-2.4s0.4-1.9,0.7-3c0.6-1.9,1.4-3.9,2.3-5.8
		c1-1.9,1.9-3.6,2.8-5.2c0.7,0.2,1.4,0.4,2,0.7s1.2,0.8,1.9,1.5c-0.2,0.8-0.7,1.7-1.2,2.7c-0.6,0.9-1.2,1.8-1.7,2.9
		c-0.6,1.1-1.2,2.1-1.7,3.1c-0.5,1.1-0.8,2.2-1,3.2c0.7-1.1,1.7-2.3,2.7-3.6c1-1.4,2.1-2.7,3.1-3.9c1.1-1.2,2.2-2.2,3.2-3.1
		c1.1-0.8,2-1.2,2.9-1.2c0.3,0,0.7,0.1,1,0.2c0.3,0.1,0.7,0.2,1,0.4c0.3,0.2,0.6,0.3,0.8,0.5s0.3,0.2,0.3,0.3
		c-0.2,0.5-0.4,1.2-1,2.2c-0.5,0.9-1,1.8-1.6,2.9c-0.6,1.1-1.1,2-1.6,3c-0.5,0.9-0.7,1.7-0.8,2.2c1.3-1.7,2.5-3.4,3.6-4.8
		c1.2-1.5,2.2-2.7,3.2-3.7s1.9-1.8,2.8-2.4s1.7-0.8,2.5-0.8c0.5,0,1,0.2,1.5,0.4s0.8,0.7,1,1.2c-0.2,0.8-0.7,1.7-1.2,2.9
		c-0.5,1.1-1.1,2.3-1.7,3.6c-0.6,1.2-1.1,2.4-1.5,3.6c-0.4,1.2-0.7,2.2-0.7,3.2c0,0.6,0.1,0.9,0.2,1.1c0.2,0.2,0.4,0.2,0.7,0.2
		s0.6-0.1,0.9-0.2c0.3-0.2,0.5-0.2,0.7-0.2c0.2,0.1,0.2,0.2,0.2,0.4s0,0.3,0,0.4c-0.5,0.4-1.1,0.7-1.7,1c-0.6,0.3-1.2,0.4-1.9,0.4
		s-1.2-0.1-1.6-0.3s-0.7-0.5-1-0.9c-0.2-0.4-0.4-0.8-0.6-1.2c-0.1-0.5-0.2-1-0.2-1.6c0-0.9,0.1-1.8,0.3-2.7s0.5-1.7,0.8-2.6
		c0.3-0.8,0.7-1.6,1.1-2.2C133.2,41.5,133.4,40.8,133.7,40.3z M143.1,64c-0.7-0.2-1.1-0.7-1.2-1.5c-0.1-0.7-0.6-1.3-1.3-1.7
		c0.2-1.3,0.4-2.7,0.7-4.1c0.2-1.4,0.6-3,1-4.7s0.9-3.8,1.6-6.1c0.7-2.3,1.4-5.2,2.4-8.5c-0.9,0-1.6,0-2.1,0s-1,0.1-1.5,0.2
		c-0.1-0.1-0.2-0.2-0.2-0.4c-0.1-0.2-0.1-0.3-0.1-0.5c0.2-0.1,0.8-0.2,1.7-0.4c0.8-0.2,1.7-0.3,2.7-0.5c0.7-2,1.3-3.8,2.2-5.4
		c0.8-1.7,1.7-3,2.7-4.1c0.9-1.2,2-2,3-2.7c1.1-0.6,2.2-0.9,3.2-0.9c0.3,0,0.7,0,0.9,0.1c0.3,0,0.5,0,0.7,0c0.2-0.2,0.6-0.3,1-0.5
		s0.7-0.2,1-0.2s0.7,0.2,1.2,0.5c-0.2,0.3-0.4,0.9-0.7,1.5c-0.2,0.7-0.4,1.2-0.6,1.9c-0.7,2-1.3,3.2-2.1,3.8c-0.3,0-0.4-0.4-0.5-1.2
		c0-0.6-0.1-1.1-0.2-1.7c-0.1-0.2-0.2-0.4-0.2-0.7c0-0.2,0-0.4,0-0.7c0-0.2,0-0.3,0-0.6c0-0.2,0.1-0.7,0.2-1.2c-0.4,0-1,0.2-1.5,0.8
		c-0.5,0.6-1.1,1.3-1.7,2.4c-0.6,1-1.2,2.2-1.8,3.6s-1.2,3-1.7,4.6l3.3-0.1c0.2,0.2,0.2,0.4,0.3,0.9c0.1,0.4,0.2,0.9,0.2,1.4
		l-4.4-0.2c-1,3-2,5.9-2.8,8.6c-0.9,2.7-1.7,5.2-2.3,7.5c-0.7,2.3-1.3,4.4-1.8,6.1C143.7,61.4,143.4,62.8,143.1,64z M169.4,46.4
		c-0.6,1.9-1.2,3.7-1.8,5.3s-1.2,3.1-2,4.4c-0.7,1.3-1.4,2.6-2.2,3.7c-0.8,1.2-1.7,2.2-2.7,3.2c-1.2,1.2-2.5,2.2-3.8,2.9
		s-2.6,1-3.9,1c-0.7,0-1.3-0.1-2-0.2c-0.7-0.2-1.2-0.3-1.8-0.6c-0.6-0.2-1.1-0.5-1.5-0.9c-0.4-0.3-0.7-0.7-1-1
		c0-0.3,0.2-0.6,0.6-0.8c0.3,0.3,0.6,0.5,0.8,0.7c0.2,0.2,0.4,0.3,0.7,0.4c0.2,0.1,0.4,0.2,0.7,0.2s0.5,0,0.7,0c1.5,0,3-0.4,4.4-1.3
		c1.5-0.9,2.8-2.2,4.1-3.8c1.3-1.7,2.5-3.6,3.6-6c1.1-2.3,2-4.9,2.7-7.8c-0.3,0.5-0.7,1.2-1.2,2c-0.5,0.7-1.1,1.6-1.7,2.3
		c-0.6,0.7-1.2,1.4-1.9,2s-1.2,1-1.9,1.2c-0.4,0-0.9-0.1-1.3-0.2c-0.4-0.2-0.9-0.3-1.3-0.6s-0.7-0.6-1.1-1c-0.3-0.3-0.5-0.8-0.7-1.2
		c0-0.7,0-1.4,0.1-1.8c0.1-0.5,0.2-1,0.2-1.6c0.2-1,0.6-2.2,1-3.4c0.5-1.2,1-2.5,1.7-3.7s1.3-2.4,2.1-3.5c0.7-1.1,1.6-1.9,2.4-2.6
		c0.2,0,0.5,0,0.8,0.1c0.3,0,0.7,0.1,1,0.2s0.7,0.2,1,0.4s0.6,0.3,0.8,0.6c-0.3,0.2-0.9,1.2-1.9,2.7s-2.1,3.6-3.2,6.5
		c-0.2,0.3-0.3,0.7-0.5,1.2s-0.3,1.2-0.6,1.7c-0.2,0.6-0.3,1.2-0.4,1.8c-0.2,0.6-0.2,1.1-0.2,1.4c0,0.2,0,0.3,0.1,0.5
		c0.1,0.1,0.2,0.2,0.2,0.2c0.5-0.1,1.1-0.5,1.9-1.2c0.8-0.7,1.7-1.8,2.7-3.3c0.7-1,1.2-1.9,1.7-2.8c0.5-1,1.1-1.9,1.6-2.9
		s1.1-1.9,1.7-3c0.6-1.1,1.2-2.1,1.8-3.1c0.3,0,0.7,0,1.1,0.1c0.4,0.1,0.7,0.2,1.2,0.3c0.3,0.1,0.7,0.2,1,0.4s0.5,0.2,0.7,0.4
		c-0.8,1.7-1.6,3.5-2.3,5.1C170.7,42.8,170,44.5,169.4,46.4z"/>
	<path class="st1" d="M200.1,25.6c0.1,0.4,0.2,0.7,0.2,1c0.1,0.2,0.1,0.4,0.1,0.7c0,0.9-0.2,1.7-0.6,2.5c-0.3,0.7-0.9,1.2-1.6,1.6
		c-0.5-0.7-1.2-1.3-2-1.8c-0.7-0.5-1.7-1-2.6-1.2c-0.9-0.3-1.8-0.6-2.8-0.7c-1-0.2-1.9-0.2-2.9-0.2c-0.9,0-1.8,0.1-2.7,0.2
		c-0.8,0.2-1.5,0.3-2.2,0.6c-0.6,0.2-1.1,0.6-1.5,0.9c-0.3,0.3-0.5,0.8-0.5,1.2c0.1,0.6,0.4,1.2,1.1,1.8c0.7,0.6,1.4,1.2,2.3,1.7
		c0.9,0.6,2,1.1,3.1,1.7c1.2,0.6,2.2,1.1,3.3,1.6c1.3,0.7,2.5,1.2,3.5,1.8c1,0.5,1.8,1.2,2.4,1.8c0.7,0.7,1.1,1.3,1.4,2.2
		s0.5,1.8,0.5,3c0,1.3-0.2,2.7-0.7,3.8c-0.4,1.2-1.1,2.2-2,3.1c-0.8,0.9-1.9,1.6-3.1,2c-1.2,0.5-2.6,0.7-4.1,0.7s-3.1-0.2-4.8-0.7
		c-1.7-0.4-3.3-1.1-4.9-1.9c-1.5-0.7-2.7-1.7-3.7-2.7S174,48.1,174,47c0-0.5,0.2-1.2,0.4-2c0.3-0.8,0.9-1.7,1.7-2.6
		c0.1,0.8,0.5,1.7,1.2,2.8c0.8,1.1,2,2.1,3.6,3c1.5,0.8,3,1.5,4.5,1.9c1.6,0.3,3,0.6,4.4,0.6c1.5,0,2.7-0.2,3.6-0.6
		c0.9-0.3,1.7-0.8,2.2-1.3s0.9-1.1,1.1-1.6c0.2-0.5,0.3-1,0.3-1.2c0-0.5-0.2-1-0.7-1.5c-0.4-0.5-1.1-1-1.9-1.4
		c-0.7-0.5-1.7-1-2.7-1.4s-2.1-1-3.2-1.4c-1.7-0.7-3.1-1.4-4.3-2.1c-1.2-0.7-2.2-1.3-3-2c-0.7-0.7-1.3-1.4-1.7-2.2
		c-0.3-0.7-0.5-1.6-0.5-2.6c0-1.5,0.4-2.9,1.3-4.2c0.9-1.3,2.2-2.3,3.9-3c0.8-0.3,1.7-0.7,2.7-0.8c1-0.2,1.9-0.2,2.9-0.2
		c1.7,0,3.5,0.2,5.1,0.7C196.7,24.3,198.4,25,200.1,25.6z M201.5,49.9c0-1.2,0.2-2.8,0.8-4.9c0.6-2.2,1.3-4.6,2.3-7.4
		c1.7-4.5,3.1-8.2,4.6-11.2s2.9-5.3,4.2-7c0.3,0.1,0.7,0.2,1.2,0.4c0.5,0.2,0.9,0.4,1.4,0.7c0.4,0.2,0.8,0.5,1.2,0.7
		c0.3,0.2,0.6,0.5,0.7,0.7c-2.1,2.4-3.9,5.1-5.5,7.9s-3,6-4.3,9.7c-1.1,3.1-2,6-2.6,8.5s-0.9,4.6-0.9,6.2c0,0.4,0,0.7,0,0.8
		s0,0.2,0,0.3c-0.3-0.1-0.7-0.2-1-0.2c-0.2-0.2-0.4-0.3-0.5-0.5s-0.2-0.3-0.4-0.6c-0.2-0.2-0.4-0.4-0.7-0.6s-0.4-0.6-0.6-1.2
		C201.6,51.6,201.5,50.8,201.5,49.9z M215.5,53.9c-1.5-0.2-2.7-0.8-3.6-2c-0.9-1.2-1.3-2.7-1.3-4.5c0-1.1,0.2-2.2,0.5-3.3
		c0.3-1.2,0.7-2.2,1.3-3.3s1.2-2.1,2.1-3.1s1.7-1.7,2.6-2.5c1.5-1.1,2.8-1.7,4.1-1.7c0.8,0.4,1.7,1.4,2.5,2.8c0.2,0,0.2,0,0.3,0
		s0.2,0,0.3,0c1.4,0,2.1,1.2,2.1,3.7c0,1.7-0.2,3.2-0.8,4.8c-0.5,1.5-1.3,2.8-2.2,4.1c-1,1.2-2.1,2.2-3.5,3.1
		C218.6,53,217.1,53.6,215.5,53.9z M217.5,41.4c-0.4,0.6-0.9,1.2-1.2,2c-0.4,0.7-0.7,1.4-1,2.2c-0.3,0.7-0.5,1.4-0.7,2.1
		c-0.2,0.7-0.2,1.2-0.2,1.8c0,0.7,0.1,1.2,0.3,1.8s0.4,0.9,0.7,1c1.2-0.2,2.3-0.7,3.2-1.5c1-0.7,1.9-1.7,2.6-2.7
		c0.7-1.1,1.3-2.3,1.7-3.7s0.7-2.8,0.7-4.4c0-0.7,0-1.2-0.1-1.7c-0.1-0.4-0.2-0.7-0.4-1c-1.2,0.3-2.2,0.9-3.1,1.7
		C219,39.7,218.2,40.5,217.5,41.4z M230.3,37.2c-0.2-0.2-0.2-0.5-0.3-1s-0.2-1-0.2-1.3c0.7,0.1,1.3,0.1,2,0.2c0.7,0,1.2,0.1,1.7,0.1
		c0.4-0.8,0.8-1.6,1.2-2.3c0.5-0.8,0.9-1.5,1.3-2.2c0.4-0.7,0.8-1.2,1.2-1.7c0.4-0.4,0.7-0.7,0.9-0.9c0.2,0,0.6,0.1,1,0.2
		s0.8,0.2,1.2,0.3c0.4,0.2,0.8,0.2,1.2,0.4c0.3,0.2,0.6,0.3,0.7,0.5c-0.8,1-1.5,2-2.1,2.8s-1.2,1.8-1.8,3c0.5,0,1.1,0,1.6,0
		c0.6,0,1.1-0.1,1.7-0.1c0.2,0.2,0.2,0.3,0.3,0.5s0.1,0.4,0.1,0.6c-1.3,0.5-2.9,0.7-4.7,0.8c-0.7,1.2-1.2,2.6-1.8,3.8
		c-0.5,1.2-0.9,2.5-1.3,3.6c-0.3,1.2-0.7,2.2-0.8,3.3c-0.2,1-0.2,2-0.2,2.8c0,1.2,0.4,1.8,1.3,2c0.8-0.1,1.6-0.3,2.2-0.6
		c0.7-0.3,1.3-0.7,1.9-1.1c0.2,0.2,0.2,0.4,0.2,0.6c-0.2,0.2-0.4,0.5-0.8,0.8c-0.3,0.3-0.7,0.7-1.2,0.9c-0.4,0.3-0.9,0.6-1.3,0.8
		c-0.4,0.2-0.7,0.3-1,0.3c-0.7,0-1.3-0.2-2-0.4s-1.2-0.6-1.8-1c-0.5-0.4-1-0.8-1.3-1.3s-0.5-1-0.5-1.5c0-0.7,0.1-1.4,0.2-2.4
		s0.4-2.1,0.7-3.1c0.3-1.2,0.7-2.3,1.1-3.6s0.9-2.5,1.4-3.7h-2.1v-0.1H230.3z M241.9,51.8c0-0.9,0.1-2,0.2-3.2s0.4-2.7,0.8-4.1
		c0.3-1.4,0.8-2.9,1.2-4.5c0.5-1.6,1.1-3.1,1.7-4.7c0.5-1.4,1.2-2.8,1.8-4.2c0.7-1.4,1.5-2.8,2.3-4.2c0.8-1.4,1.7-2.7,2.6-4
		c0.9-1.2,1.8-2.4,2.7-3.4c0.4,0,0.9,0.1,1.3,0.2c0.5,0.1,1,0.2,1.4,0.4c0.5,0.2,0.9,0.3,1.2,0.6c0.4,0.2,0.7,0.5,1,0.7
		c-2,2.1-3.8,4.1-5.4,6.2s-2.8,4-3.8,5.9c-0.5,1-1,2-1.4,2.8c-0.4,0.9-0.7,1.7-1.1,2.7c-0.3,0.8-0.7,1.7-1,2.6
		c-0.2,0.8-0.5,1.7-0.7,2.7c5.1-6.5,8.9-9.8,11.4-9.8c0.7,0,1.4,0.2,2.2,0.7c0.8,0.4,1.5,1.1,2.1,1.8c-0.8,0.9-1.7,2-2.6,3.2
		s-1.7,2.6-2.4,3.9c-0.7,1.2-1.3,2.5-1.8,3.6c-0.4,1.1-0.7,1.9-0.7,2.4c0,0.2,0,0.4,0.1,0.6c0.1,0.1,0.2,0.1,0.5,0.1
		c0.4,0,0.7-0.1,1-0.2c0.2-0.1,0.4-0.2,0.4-0.2c0.2,0.2,0.2,0.3,0.2,0.4s0,0.2,0,0.2c0,0.1-0.2,0.2-0.5,0.5
		c-0.3,0.2-0.7,0.4-1.2,0.6c-0.4,0.2-0.8,0.3-1.2,0.5s-0.7,0.2-1,0.2s-0.5-0.1-0.8-0.2c-0.2-0.2-0.5-0.3-0.7-0.6
		c-0.2-0.2-0.3-0.5-0.5-0.8c-0.1-0.3-0.2-0.6-0.2-0.9c0-0.4,0.1-1,0.3-1.7c0.2-0.8,0.6-1.7,1-2.7c0.4-1.1,0.9-2.2,1.4-3.5
		c0.6-1.2,1.2-2.5,1.8-3.8c0-0.1-0.1-0.2-0.2-0.2c-0.1,0-0.3,0.1-0.7,0.3c-0.3,0.2-0.7,0.4-0.9,0.7c-1,0.7-1.9,1.6-2.9,2.7
		c-1,1-1.9,2.2-2.8,3.4s-1.7,2.6-2.6,4c-0.8,1.4-1.5,2.7-2.1,4.1c-0.1,0.2-0.2,0.3-0.3,0.5c-0.2,0.2-0.3,0.2-0.4,0.2
		c-0.1,0-0.2-0.1-0.3-0.2s-0.2-0.4-0.4-0.7c-0.1-0.2-0.2-0.6-0.3-0.8C241.8,52.2,241.9,52,241.9,51.8z"/>
</g>
<g>
	<path class="st1" d="M20.6,3.4c6.8-1.3,13.6-1.8,20.6-1.5c0.9,0,1.8,0.1,2.7,0.3c3,0.5,4.1,1.6,4.3,4.6s-0.3,5.9-0.6,8.9
		c-0.5,4.9-1.5,9.8,0.6,14.5c1.2,2.9,2.2,3.2,5,2c1.9-0.9,4-1.5,6.1-1.2c3.7,0.4,6.1,2.5,7.2,6.1c0.8,2.5,0.9,5.1,0,7.6
		c-1.3,1-2.7,1.8-4.3,2.2c-3.4,0.9-6.9,0.8-10.4,0.5c-2.6-0.2-4.6-1.2-5.8-3.7c-0.5-1.2-1.4-2.2-2.1-3.2c-2.4-3.6-5.5-5.6-10-5.3
		c-2.2,0.2-4.3,0.8-6.3,1.7s-3.1,0.6-4.3-1.2c-0.9-1.3-1.5-2.8-1.7-4.3c-0.8-4.7-0.3-9.3,0.4-14c0.5-2.9,0.8-5.9,0.7-8.8
		C22.5,6.6,22.3,4.7,20.6,3.4z"/>
	<path class="st0" d="M33.6,35.3l-0.8-2.8l-1.4,0.1c0,0-2.5,1.7-2.5,3.6c0,1.9,5.3-0.6,5.3-0.6l0.2-1.3"/>
	<path class="st0" d="M46.7,44.4c0,0-1.7-5.2-2.6-5.4c-0.9-0.2-1.1,0.7-1.5,1.3s1.1,2.2,1.1,2.2l1,1.2l0.8,0.5"/>
	<path class="st2" d="M66.3,44.6c0,1.1-0.5,2-1,2.9c-1.5,2.5-3.3,4.8-5.5,6.7l0,0c0,0,0,0-0.1,0.1l0,0c-0.9,0.8-6.6,5.3-14.5,6.3
		c-0.1,0-0.2,0-0.3,0c-2,0.2-4,0.2-6-0.1c-0.2,0-0.4,0-0.5,0l0,0c-1.5-0.2-3-0.6-4.6-1.2c0,0-0.1,0-0.2-0.1l0,0
		c-2.7-1-5.5-2.7-8.3-5l0,0c-3.6-3.6-5.6-8.2-7-13.2C15.4,30.7,15.2,20.2,16,9.6c0.1-1.8,0.9-3.5,2-5c0.6-0.9,1.4-1.6,2.6-1.2
		c1.6,1.4,1.9,3.3,2,5.2c0.1,3-0.2,5.9-0.7,8.8c-0.7,4.6-1.3,9.3-0.4,14c0.3,1.5,0.8,3,1.7,4.4c1.2,1.8,2.3,2.1,4.3,1.2
		c2-1,4.1-1.6,6.3-1.7c4.4-0.3,7.6,1.7,10,5.3c0.7,1.1,1.6,2.1,2.1,3.2c1.1,2.5,3.2,3.5,5.8,3.7c3.5,0.3,7,0.3,10.4-0.5
		C63.7,46.4,65,45.6,66.3,44.6z"/>
	<path class="st2" d="M58.6,52.4l3.3,18c0.2,0.9-0.3,1.7-1.1,2l0,0c-1,0.4-2.1-0.2-2.4-1.2l-4.9-17.9"/>
	<path class="st2" d="M47.6,55.9v18.3c0,0.9-0.6,1.6-1.5,1.8l0,0c-1,0.2-2-0.6-2.1-1.6l-1.6-18.5"/>
	<path class="st2" d="M20.7,54.1l-2.3,18.2c-0.1,0.9,0.4,1.7,1.2,1.9l0,0c1,0.3,2.1-0.3,2.3-1.3l3.9-18.1"/>
	<g>
		<path class="st0" d="M50.5,59.7c0.1-0.2,0.1-0.2,0.1-0.3c0.7-2.1,1.2-4.2,1.3-6.4c0.3-3.9-0.4-7.5-2.3-10.9
			c-1-1.8-2.5-2.9-4.5-3.3c-0.5-0.1-1-0.1-1.4,0.2c0.3,0.4,0.6,0.7,0.9,1c1,1.2,1.3,2.7,1.3,4.2c0,1.7-0.3,3.4-0.8,5
			c-0.6,1.9-1.4,3.6-2.5,5.2c-2.2,2.9-5,4.7-8.5,5.4c-0.1,0.1-0.3,0.1-0.5,0.1c2.7-2.7,4.9-5.7,6-9.4c-0.7,0.3-1.3,0.5-1.8,0.7
			c0.4-1.4,0.9-2.9,1.3-4.4c0.3-1.5,0.5-3,0.5-4.6c0.6,0.7,1.2,1.5,1.7,2.3c0.6,0.8,1,1.6,1.5,2.5c0-0.1,0.1-0.1,0.1-0.2
			c1.1-1.9,1.5-4,1.1-6.2c-0.1-0.6-0.4-1.1-0.7-1.5c-0.1-0.2-0.3-0.4-0.4-0.5c-1-1-2.1-1.9-3.3-2.6c-0.7-0.5-1.3-1-1.8-1.7
			c-1.4-2.1-3.8-2.7-6.2-1.7c-0.1,0-0.2,0.1-0.3,0.1c0.1,0,0.1,0.1,0.2,0.1c1.3,0.4,1.9,1.3,2,2.6c0.1,1,0,1.9-0.2,2.8
			c-0.4,2-1.2,3.9-2,5.8c-1.4,3.2-3.3,6-5.7,8.5c-0.5,0.5-1,1-1.5,1.5c0-0.2,0.1-0.2,0.1-0.3c0.6-1.2,1-2.4,1.1-3.6l0,0c0,0,0,0,0,0
			c0-0.2,0-0.3,0-0.5l0,0c0-0.1,0-0.2,0-0.3c0,0,0-0.1,0-0.1l0,0c0,0,0-0.1,0-0.1c-0.3-3.4-2.2-5.8-5.2-7.2
			c-0.3-0.1-0.3-0.2-0.2-0.5c0.1-0.2,0.2-0.5,0.3-0.8c-0.1,0.1-0.1,0.1-0.2,0.1c-1.3,0.3-2.5,0.5-3.9,0.5c-2.5,0-4.6,0.8-6.2,2.8
			C10,44,9.9,44,9.9,44.1l0,0c0,0,0,0,0,0c-0.1,0.2-0.2,0.3-0.3,0.4l0,0c-0.9,1.4-1.6,2.9-1.9,4.6C7.2,51.2,7,53.5,7,55.7
			c0,2.8,0.4,5.6,1.1,8.3c0.1,0.2,0.2,0.4,0.3,0.7c0.3-0.5,0.6-1,0.9-1.5c0.1,0.2,0.1,0.3,0.2,0.4c1,1.9,2.3,3.6,3.8,5.1
			c2.7,2.7,6,4.5,9.7,5.5c3.9,1,7.7,1.1,11.5,0.1c3.2-0.8,6.2-2.3,8.8-4.4c3.2-2.6,6.1-5.4,8.1-9c0.3-0.5,0.6-1.1,0.9-1.7
			C51.7,59.4,51.1,59.5,50.5,59.7z"/>
		<path class="st2" d="M20.7,44.5c0.6,0,1.2,0.3,1.6,0.6c1.4,1.1,2.4,2.5,2.4,4.3c0,0.1,0,0.2,0,0.2c0,0.2-0.1,0.5-0.1,0.7
			c-0.1,0.2-0.2,0.4-0.4,0.4c-0.1,0-0.4-0.2-0.5-0.3c-0.2-0.4-0.4-0.9-0.6-1.3c-0.4-0.8-0.8-1.5-1.5-2c-0.3-0.2-0.8-0.4-1.2-0.4
			c-0.6-0.1-1,0.2-1.3,0.7s-0.1,0.9,0.2,1.3l-0.6,0.7l-0.4-0.3c-0.3-0.2-0.8-0.5-1.4-0.7c-0.5-0.1-1-0.1-1.5-0.1
			c-0.2,0-0.4,0.1-0.5,0.2v-1c0.2,0,0.5,0,0.7-0.1c0.6-0.2,0.7-0.5,0.8-0.9c0.1-0.5-0.3-1.2-0.7-1.4c-0.9-0.5-1.8-0.4-2.7,0
			c-0.6,0.3-1.3,0.6-1.9,0.9c-0.2,0.1-0.5,0.3-0.7,0c-0.2-0.2-0.1-0.6,0-0.8s0.2-0.4,0.4-0.6c0.5-0.6,1.1-1.1,1.8-1.4
			c1.1-0.5,2.3-0.8,3.5-0.5s1.9,1.1,2.2,2.2c0,0.1,0,0.2,0.1,0.3C19,44.7,19.8,44.4,20.7,44.5z"/>
		<path class="st2" d="M18.6,49.4l0.6-0.7c0.5,0.5,1.1,1,1.7,1.5c0.5,0.5,1.1,0.9,1.6,1.4c0.8,0.8,0.7,1.8-0.1,2.6
			c-0.6,0.6-1.2,0.9-2,1.1c-1.4,0.4-2.8,0.3-4.2,0c-1.8-0.5-3.6-1.2-5-2.5c-0.7-0.6-1.3-1.4-1.6-2.3c-0.1-0.4-0.1-0.9-0.1-1.4
			c0.1-0.7,0.5-1.2,1.2-1.3s1.5-0.2,2.2-0.2c0.6,0,1.2,0,1.9-0.1v1c-0.1,0.1-0.1,0.3-0.1,0.5c0.2,0.8,0.7,1.5,1.4,1.8
			c0.8,0.3,1.7,0.2,2.4-0.3C18.9,50.1,19,49.8,18.6,49.4z M19.4,52.1c-2.5,0.2-4.6-0.5-6.4-2.2C13.5,52.2,17.7,53.7,19.4,52.1z"/>
		<path class="st0" d="M16.6,48.4c0.7,0.1,1.3,0.4,1.8,0.9l0.1,0.1c0.4,0.4,0.3,0.7-0.2,1.1c-0.7,0.5-1.6,0.7-2.4,0.3
			c-0.7-0.3-1.2-1-1.4-1.8c-0.1-0.2,0-0.4,0.1-0.5s0.2-0.2,0.5-0.2C15.7,48.2,16.2,48.3,16.6,48.4z"/>
		<path class="st0" d="M13,49.8c1.8,1.7,3.9,2.4,6.4,2.2C17.7,53.7,13.5,52.2,13,49.8z"/>
	</g>
</g>
</svg>
