<svg xmlns="http://www.w3.org/2000/svg" viewBox="0 0 178.38 74.22"><defs><style>.cls-1{fill:#7c5345;}.cls-2{fill:#53372b;}.cls-3{fill:#c9ba99;}</style></defs><g id="Layer_2" data-name="Layer 2"><g id="Layer_1-2" data-name="Layer 1"><path class="cls-1" d="M13.6,1.58A88.61,88.61,0,0,1,34.2.08a12.41,12.41,0,0,1,2.7.3C39.9.88,41,2,41.2,5a53.26,53.26,0,0,1-.6,8.9c-.5,4.9-1.5,9.8.6,14.5,1.2,2.9,2.2,3.2,5,2a10.82,10.82,0,0,1,6.1-1.2,8,8,0,0,1,7.2,6.1,11.64,11.64,0,0,1,0,7.6,11.72,11.72,0,0,1-4.3,2.2,30.25,30.25,0,0,1-10.4.5,6.37,6.37,0,0,1-5.8-3.7,17.68,17.68,0,0,0-2.1-3.2c-2.4-3.6-5.5-5.6-10-5.3a19.63,19.63,0,0,0-6.3,1.7c-2,.9-3.1.6-4.3-1.2a10,10,0,0,1-1.7-4.3c-.8-4.7-.3-9.3.4-14a43.54,43.54,0,0,0,.7-8.8C15.5,4.78,15.3,2.88,13.6,1.58Z"/><path class="cls-2" d="M26.6,33.48l-.8-2.8-1.4.1s-2.5,1.7-2.5,3.6,5.3-.6,5.3-.6l.2-1.3"/><path class="cls-2" d="M39.7,42.58s-1.7-5.2-2.6-5.4-1.1.7-1.5,1.3,1.1,2.2,1.1,2.2l1,1.2.8.5"/><path class="cls-3" d="M59.3,42.78a5.93,5.93,0,0,1-1,2.9,27.35,27.35,0,0,1-5.5,6.7h0l-.1.1h0a29.52,29.52,0,0,1-14.5,6.3h-.3a24.1,24.1,0,0,1-6-.1h-.5a20.87,20.87,0,0,1-4.6-1.2.31.31,0,0,1-.2-.1h0a29.57,29.57,0,0,1-8.3-5h0c-3.6-3.6-5.6-8.2-7-13.2C8.4,28.88,8.2,18.38,9,7.78a9.49,9.49,0,0,1,2-5c.6-.9,1.4-1.6,2.6-1.2,1.6,1.4,1.9,3.3,2,5.2a43,43,0,0,1-.7,8.8c-.7,4.6-1.3,9.3-.4,14A12.56,12.56,0,0,0,16.2,34c1.2,1.8,2.3,2.1,4.3,1.2a15.58,15.58,0,0,1,6.3-1.7c4.4-.3,7.6,1.7,10,5.3A29.22,29.22,0,0,1,38.9,42c1.1,2.5,3.2,3.5,5.8,3.7a33,33,0,0,0,10.4-.5A15.81,15.81,0,0,0,59.3,42.78Z"/><path class="cls-3" d="M51.6,50.58l3.3,18a1.71,1.71,0,0,1-1.1,2h0a1.83,1.83,0,0,1-2.4-1.2l-4.9-17.9"/><path class="cls-3" d="M40.6,54.08v18.3a1.82,1.82,0,0,1-1.5,1.8h0a1.83,1.83,0,0,1-2.1-1.6l-1.6-18.5"/><path class="cls-3" d="M13.7,52.28l-2.3,18.2a1.69,1.69,0,0,0,1.2,1.9h0a1.81,1.81,0,0,0,2.3-1.3L18.8,53"/><path class="cls-2" d="M43.5,57.88c.1-.2.1-.2.1-.3a23.5,23.5,0,0,0,1.3-6.4,18.76,18.76,0,0,0-2.3-10.9A6.36,6.36,0,0,0,38.1,37a1.7,1.7,0,0,0-1.4.2,9,9,0,0,0,.9,1,6.37,6.37,0,0,1,1.3,4.2,16.87,16.87,0,0,1-.8,5,19.22,19.22,0,0,1-2.5,5.2A13.71,13.71,0,0,1,27.1,58a.75.75,0,0,1-.5.1,22.32,22.32,0,0,0,6-9.4c-.7.3-1.3.5-1.8.7.4-1.4.9-2.9,1.3-4.4a23.15,23.15,0,0,0,.5-4.6,19.52,19.52,0,0,1,1.7,2.3,20.68,20.68,0,0,1,1.5,2.5c0-.1.1-.1.1-.2a8.93,8.93,0,0,0,1.1-6.2,3.48,3.48,0,0,0-.7-1.5,2.18,2.18,0,0,0-.4-.5,16.44,16.44,0,0,0-3.3-2.6,7.28,7.28,0,0,1-1.8-1.7,4.84,4.84,0,0,0-6.2-1.7c-.1,0-.2.1-.3.1.1,0,.1.1.2.1a2.67,2.67,0,0,1,2,2.6,8.63,8.63,0,0,1-.2,2.8,30.62,30.62,0,0,1-2,5.8,28.84,28.84,0,0,1-5.7,8.5l-1.5,1.5c0-.2.1-.2.1-.3a9.74,9.74,0,0,0,1.14-3.61v-.05c0-.17,0-.35,0-.52h0v-.27s0-.09,0-.14h0v-.11A8.41,8.41,0,0,0,13.23,40c-.3-.1-.3-.2-.2-.5a6.89,6.89,0,0,0,.3-.8c-.1.1-.1.1-.2.1a16.66,16.66,0,0,1-3.9.5,7.42,7.42,0,0,0-6.17,2.84,1.29,1.29,0,0,0-.16.17h0l0,0c-.12.15-.19.31-.26.38h0A13.24,13.24,0,0,0,.7,47.28a29,29,0,0,0-.7,6.6,33.18,33.18,0,0,0,1.1,8.3,4.88,4.88,0,0,1,.3.7l.9-1.5c.1.2.1.3.2.4A21.3,21.3,0,0,0,16,72.38a22.43,22.43,0,0,0,11.5.1,22.82,22.82,0,0,0,8.8-4.4,31.6,31.6,0,0,0,8.1-9c.3-.5.6-1.1.9-1.7C44.7,57.58,44.1,57.68,43.5,57.88Z"/><path class="cls-3" d="M13.67,42.68a2.83,2.83,0,0,1,1.6.6,5.46,5.46,0,0,1,2.4,4.3v.2c0,.2-.1.5-.1.7s-.2.4-.4.4a1.33,1.33,0,0,1-.5-.3c-.2-.4-.4-.9-.6-1.3a5,5,0,0,0-1.5-2,2.45,2.45,0,0,0-1.2-.4,1.21,1.21,0,0,0-1.3.7,1.11,1.11,0,0,0,.17,1.34l-.64.66-.44-.31a5,5,0,0,0-1.39-.69,7.57,7.57,0,0,0-1.5-.1.76.76,0,0,0-.5.2v-1a1.8,1.8,0,0,0,.72-.1,1,1,0,0,0,.78-.9,1.51,1.51,0,0,0-.7-1.4,2.87,2.87,0,0,0-2.7,0c-.6.3-1.3.6-1.9.9-.2.1-.5.3-.7,0s-.1-.6,0-.8a2.09,2.09,0,0,1,.4-.6,4.89,4.89,0,0,1,1.8-1.4,5.32,5.32,0,0,1,3.5-.5,2.91,2.91,0,0,1,2.2,2.2.37.37,0,0,0,.1.3A3.41,3.41,0,0,1,13.67,42.68Z"/><path class="cls-3" d="M11.6,47.58l.6-.7c.5.5,1.1,1,1.7,1.5s1.1.9,1.6,1.4a1.71,1.71,0,0,1-.1,2.6,4,4,0,0,1-2,1.1,8.53,8.53,0,0,1-4.2,0,11.81,11.81,0,0,1-5-2.5,5.33,5.33,0,0,1-1.6-2.3,6.15,6.15,0,0,1-.1-1.4A1.39,1.39,0,0,1,3.7,46a16.35,16.35,0,0,1,2.2-.2,12.75,12.75,0,0,0,1.9-.1v1a.75.75,0,0,0-.1.5A2.6,2.6,0,0,0,9.1,49a2.57,2.57,0,0,0,2.4-.3C11.9,48.28,12,48,11.6,47.58Zm.8,2.7A7.92,7.92,0,0,1,6,48.08C6.5,50.38,10.7,51.88,12.4,50.28Z"/><path class="cls-2" d="M9.6,46.58a3.1,3.1,0,0,1,1.8.9l.1.1c.4.4.3.7-.2,1.1a2.32,2.32,0,0,1-2.4.3,2.6,2.6,0,0,1-1.4-1.8.44.44,0,0,1,.1-.5.59.59,0,0,1,.5-.2A3.55,3.55,0,0,1,9.6,46.58Z"/><path class="cls-2" d="M6,48a7.92,7.92,0,0,0,6.4,2.2C10.7,51.88,6.5,50.38,6,48Z"/><path d="M77.11,22.33c5.52,0,9.68,3.11,11,8.13H81.9a5.11,5.11,0,0,0-4.86-3c-3.47,0-5.85,2.58-5.85,6.67s2.38,6.68,5.85,6.68a5.11,5.11,0,0,0,4.86-3h6.21c-1.32,5-5.48,8.09-11,8.09-6.84,0-11.67-4.86-11.67-11.8S70.27,22.33,77.11,22.33Z"/><path d="M100,46.06c-5.42,0-9.52-3.63-9.52-9.48s4.2-9.49,9.59-9.49,9.58,3.64,9.58,9.49S105.4,46.06,100,46.06Zm0-4.89c2,0,3.9-1.49,3.9-4.59S102,32,100.05,32s-3.84,1.46-3.84,4.6S97.93,41.17,100,41.17Z"/><path d="M138.06,35.78c0-2.41-1.39-3.73-3.54-3.73S131,33.37,131,35.78v10h-5.61v-10c0-2.41-1.39-3.73-3.54-3.73s-3.54,1.32-3.54,3.73v10h-5.65V27.35h5.65v2.32a6.51,6.51,0,0,1,5.39-2.51A6.89,6.89,0,0,1,130,30.59a7.41,7.41,0,0,1,6.21-3.43c4.56,0,7.51,2.91,7.51,7.86V45.8h-5.62Z"/><path d="M148.21,32.05h-2.05v-4.7h2.05v-.52c0-4.83,3-7.21,8.59-6.91v4.79c-2.18-.13-2.94.53-2.94,2.48v.16h3v4.7h-3V45.8h-5.65Z"/><path d="M172.27,27.35h6.11L166.81,54.56h-6.08L165,45.17l-7.5-17.82h6.31L168,38.89Z"/><path d="M74.79,73.57c-5,0-8.89-2.47-9.05-7.17h6a2.67,2.67,0,0,0,2.88,2.65c1.65,0,2.71-.83,2.71-2.18,0-4.3-11.6-2-11.54-10.22,0-4.39,3.61-6.84,8.47-6.84,5,0,8.46,2.51,8.69,6.94H76.84a2.5,2.5,0,0,0-2.67-2.41,2.05,2.05,0,0,0-2.38,2.11c0,4,11.47,2.22,11.47,10C83.26,70.33,80.21,73.57,74.79,73.57Z"/><path d="M86.73,48.89h5.65V73.34H86.73Z"/><path d="M104.87,73.61c-5.42,0-9.52-3.64-9.52-9.49s4.2-9.48,9.59-9.48,9.58,3.63,9.58,9.48S110.29,73.61,104.87,73.61Zm0-4.89c2,0,3.9-1.49,3.9-4.6s-1.85-4.59-3.83-4.59S101.1,61,101.1,64.12,102.82,68.72,104.87,68.72Z"/><path d="M118.43,59.59h-2.25V54.9h2.25V50.41h5.65V54.9h3.7v4.69h-3.7V67c0,1.09.46,1.55,1.72,1.55h2v4.79h-2.87c-3.84,0-6.51-1.62-6.51-6.41Z"/><path d="M131,48.89h5.65v8.49a6.81,6.81,0,0,1,5.69-2.68c4.2,0,7,2.91,7,7.87V73.34h-5.62v-10c0-2.51-1.39-3.9-3.54-3.9s-3.54,1.39-3.54,3.9v10H131Z"/></g></g></svg>