<svg width="14" height="16" viewBox="0 0 14 16" fill="none" xmlns="http://www.w3.org/2000/svg">
<path fill-rule="evenodd" clip-rule="evenodd" d="M3.537 11.3481C2.2777 11.3481 1.20075 12.4383 1.20075 13.8542V14.8117H12.6287V13.8542C12.6287 12.4383 11.5517 11.3481 10.2924 11.3481H3.537ZM0.0185547 13.8542C0.0185547 11.8491 1.56284 10.1659 3.537 10.1659H10.2924C12.2666 10.1659 13.8109 11.8491 13.8109 13.8542V15.4028C13.8109 15.7293 13.5462 15.9939 13.2198 15.9939H0.609653C0.283199 15.9939 0.0185547 15.7293 0.0185547 15.4028V13.8542Z" fill="black"/>
<path fill-rule="evenodd" clip-rule="evenodd" d="M6.91473 2.05646C5.22518 2.05646 3.85554 3.42611 3.85554 5.11566C3.85554 6.80521 5.22518 8.17485 6.91473 8.17485C8.60428 8.17485 9.97393 6.80521 9.97393 5.11566C9.97393 3.42611 8.60428 2.05646 6.91473 2.05646ZM2.67334 5.11566C2.67334 2.7732 4.57228 0.874268 6.91473 0.874268C9.25719 0.874268 11.1561 2.7732 11.1561 5.11566C11.1561 7.45812 9.25719 9.35705 6.91473 9.35705C4.57228 9.35705 2.67334 7.45812 2.67334 5.11566Z" fill="black"/>
</svg>
